HIERARCHY
ROOT Hips
{
  OFFSET 51.7366 93.4908 15.6002
  CHANNELS 6 Xposition Yposition Zposition Zrotation Xrotation Yrotation
  JOINT spine
  {
    OFFSET 0 7.4756 0.429885
    CHANNELS 3 Zrotation Xrotation Yrotation
    JOINT spine1
    {
      OFFSET 0 9.92301 0
      CHANNELS 3 Zrotation Xrotation Yrotation
      JOINT spine2
      {
        OFFSET 0 9.50804 0
        CHANNELS 3 Zrotation Xrotation Yrotation
        JOINT Neck
        {
          OFFSET 0 24.4111 1.16384
          CHANNELS 3 Zrotation Xrotation Yrotation
          JOINT Head
          {
            OFFSET 0 7.37523 0
            CHANNELS 3 Zrotation Xrotation Yrotation
            End Site
            {
              OFFSET 0 17.8522 -5.88741
            }
          }
        }
        JOINT RightShoulder
        {
          OFFSET -4.00356 10.2679 -0.557468
          CHANNELS 3 Zrotation Xrotation Yrotation
          JOINT RightArm
          {
            OFFSET 0 13.4673 0
            CHANNELS 3 Zrotation Xrotation Yrotation
            JOINT RightArmRoll
            {
              OFFSET 0 6.79858 0
              CHANNELS 3 Zrotation Xrotation Yrotation
              JOINT RightForeArm
              {
                OFFSET 0 19.8018 0
                CHANNELS 3 Zrotation Xrotation Yrotation
                JOINT RightForeArmRoll
                {
                  OFFSET 0 7.62906 0
                  CHANNELS 3 Zrotation Xrotation Yrotation
                  JOINT RightHand
                  {
                    OFFSET 0 15.3098 0
                    CHANNELS 3 Zrotation Xrotation Yrotation
                    End Site
                    {
                      OFFSET 0 0 0
                    }
                  }
                }
              }
            }
          }
        }
        JOINT LeftShoulder
        {
          OFFSET 4.00356 10.2679 -0.557468
          CHANNELS 3 Zrotation Xrotation Yrotation
          JOINT LeftArm
          {
            OFFSET 0 13.4673 0
            CHANNELS 3 Zrotation Xrotation Yrotation
            JOINT LeftArmRoll
            {
              OFFSET 0 6.79858 0
              CHANNELS 3 Zrotation Xrotation Yrotation
              JOINT LeftForeArm
              {
                OFFSET 0 19.8018 0
                CHANNELS 3 Zrotation Xrotation Yrotation
                JOINT LeftForeArmRoll
                {
                  OFFSET 0 7.62905 0
                  CHANNELS 3 Zrotation Xrotation Yrotation
                  JOINT LeftHand
                  {
                    OFFSET 0 15.3098 0
                    CHANNELS 3 Zrotation Xrotation Yrotation
                    End Site
                    {
                      OFFSET 0 0 0
                    }
                  }
                }
              }
            }
          }
        }
      }
    }
  }
  JOINT RightUpLeg
  {
    OFFSET -6.62609 -1.21505 -1.01927
    CHANNELS 3 Zrotation Xrotation Yrotation
    JOINT RightUpLegRoll
    {
      OFFSET 0 17.9517 0
      CHANNELS 3 Zrotation Xrotation Yrotation
      JOINT RightLeg
      {
        OFFSET 0 -22.2304 0
        CHANNELS 3 Zrotation Xrotation Yrotation
        JOINT RightLegRoll
        {
          OFFSET 0 22.3032 0
          CHANNELS 3 Zrotation Xrotation Yrotation
          JOINT RightFoot
          {
            OFFSET 0 18.5636 0
            CHANNELS 3 Zrotation Xrotation Yrotation
            JOINT RightToeBase
            {
              OFFSET 0 15.5183 0
              CHANNELS 3 Zrotation Xrotation Yrotation
              End Site
              {
                OFFSET 0.00657761 7.51539 -0.866262
              }
            }
          }
        }
      }
    }
  }
  JOINT LeftUpLeg
  {
    OFFSET 6.62609 -1.21505 -1.01927
    CHANNELS 3 Zrotation Xrotation Yrotation
    JOINT LeftUpLegRoll
    {
      OFFSET 0 17.9518 0
      CHANNELS 3 Zrotation Xrotation Yrotation
      JOINT LeftLeg
      {
        OFFSET 0 22.2303 0
        CHANNELS 3 Zrotation Xrotation Yrotation
        JOINT LeftLegRoll
        {
          OFFSET 0 22.5093 0
          CHANNELS 3 Zrotation Xrotation Yrotation
          JOINT LeftFoot
          {
            OFFSET 0 18.3575 0
            CHANNELS 3 Zrotation Xrotation Yrotation
            JOINT LeftToeBase
            {
              OFFSET 0 15.5183 0
              CHANNELS 3 Zrotation Xrotation Yrotation
              End Site
              {
                OFFSET -0.029478 7.51539 -0.866263
              }
            }
          }
        }
      }
    }
  }
}
MOTION
Frames: 9
Frame Time: 0.00208333
50.7344 103.428 15.7395 0.419603 -0.0722853 -2.09945 0.163257 -1.03897 0.256745 0.328164 1.92559 0.495184 0.322518 3.57063 0.490017 -13.4932 4.78158 0.497628 14.6699 9.8927 -2.0045 24.7665 -8.92392 -4.78967 62.4655 36.8894 49.2425 -2.27332e-007 -3.98544e-007 -2.99956e-008 2.81724 49.6086 -3.49013 2.10206e-005 -2.94675e-006 -3 8.02984 -4.95142 0.697646 -36.0249 -13.1135 9.11052 -36.784 26.0753 -45.8734 -1.33834e-005 8.13346e-007 1.14553e-005 -2.36909 45.3724 2.14698 -2.18936e-005 2.58789e-006 3 -8.03026 -4.95139 -0.697642 166.604 3.11621 3.73775 180 7.01535e-015 178.874 -178.238 4.54275 179.528 -2.67945e-006 -4.48744e-006 0.0110134 -18.5477 67.7026 19.2923 8.1365 25.2327 -3.48774 -166.58 3.58062 -3.17191 4.54188e-006 -4.67731e-006 -1.19357 -0.758848 -6.48944 0.155614 3.40533e-006 -6.77322e-007 0.0291527 17.3162 66.0388 -18.0505 -8.13649 25.2327 3.48774 
50.7378 103.675 15.742 0.366411 0.0364704 -2.11404 0.158921 -1.04111 0.251878 0.319419 1.92129 0.48594 0.313875 3.56633 0.480913 -12.9827 4.45357 0.419791 14.3394 10.1744 -1.98369 25.581 -8.91684 -4.80853 62.151 36.6387 48.9611 -2.27332e-007 -3.98544e-007 -2.99956e-008 2.88727 49.5285 -3.53578 2.10206e-005 -2.94675e-006 -3 8.02984 -4.95142 0.697646 -35.8794 -13.2969 9.29414 -37.7506 25.9548 -45.3764 -1.33834e-005 8.13346e-007 1.14553e-005 -2.40678 45.4489 2.16492 -2.18936e-005 2.58789e-006 3 -8.03026 -4.95139 -0.697642 166.756 3.2074 3.64619 180 7.01538e-015 178.884 -178.257 4.42558 179.535 -2.67945e-006 -4.48744e-006 0.0126583 -18.575 67.7495 19.33 8.1365 25.2327 -3.48774 -166.628 3.74904 -3.15578 4.54188e-006 -4.67731e-006 -1.18378 -0.777636 -6.53248 0.154158 3.40533e-006 -6.77322e-007 0.0248287 17.347 66.094 -18.0913 -8.13649 25.2327 3.48774 
50.7442 103.865 15.7332 0.314543 0.14941 -2.12814 0.154463 -1.04403 0.247177 0.310462 1.91542 0.477042 0.305016 3.56046 0.472159 -12.4736 4.12485 0.341955 14.0092 10.4524 -1.96338 26.3857 -8.91294 -4.83082 61.8455 36.3909 48.6717 -2.27332e-007 -3.98544e-007 -2.99956e-008 2.95835 49.4357 -3.58044 2.10206e-005 -2.94675e-006 -3 8.02984 -4.95142 0.697646 -35.7397 -13.4775 9.47513 -38.7094 25.8292 -44.8866 -1.33834e-005 8.13346e-007 1.14553e-005 -2.44277 45.5244 2.18213 -2.18936e-005 2.58789e-006 3 -8.03026 -4.95139 -0.697642 166.909 3.30779 3.55607 180 7.0154e-015 178.893 -178.278 4.32487 179.542 -2.67945e-006 -4.48744e-006 0.0145563 -18.602 67.7953 19.3669 8.1365 25.2327 -3.48774 -166.68 3.92415 -3.14113 4.54188e-006 -4.6773e-006 -1.17425 -0.799376 -6.58311 0.152725 3.40533e-006 -6.77322e-007 0.0204371 17.3757 66.1455 -18.1295 -8.13649 25.2327 3.48774 
50.7409 104.092 15.7329 0.264823 0.265371 -2.14179 0.149989 -1.04771 0.242647 0.301513 1.90802 0.468486 0.296161 3.55306 0.463747 -11.9733 3.79903 0.265894 13.685 10.7245 -1.94338 27.1745 -8.91144 -4.85495 61.5567 36.144 48.3695 -2.27332e-007 -3.98544e-007 -2.99956e-008 3.02999 49.3263 -3.62362 2.10206e-005 -2.94675e-006 -3 8.02984 -4.95142 0.697646 -35.6115 -13.6523 9.65028 -39.6556 25.695 -44.4043 -1.33834e-005 8.13346e-007 1.14553e-005 -2.47756 45.5975 2.19923 -2.18936e-005 2.58789e-006 3 -8.03026 -4.95139 -0.697642 167.062 3.41421 3.46771 180 7.01542e-015 178.903 -178.3 4.23668 179.548 -2.67945e-006 -4.48744e-006 0.0165203 -18.628 67.8388 19.4021 8.1365 25.2327 -3.48774 -166.735 4.10215 -3.12614 4.54188e-006 -4.6773e-006 -1.16507 -0.823492 -6.63586 0.151279 3.40533e-006 -6.77322e-007 0.0161788 17.4014 66.192 -18.164 -8.13649 25.2327 3.48774 
50.7511 104.292 15.6953 0.218073 0.383191 -2.15502 0.145606 -1.05214 0.238293 0.292791 1.89913 0.460272 0.287529 3.54417 0.455672 -11.4885 3.47974 0.193375 13.373 10.9884 -1.92348 27.9414 -8.91154 -4.87932 61.2924 35.8957 48.0501 -2.27332e-007 -3.98544e-007 -2.99956e-008 3.10169 49.1965 -3.66482 2.10206e-005 -2.94675e-006 -3 8.02984 -4.95142 0.697646 -35.5003 -13.8182 9.81634 -40.5845 25.5483 -43.93 -1.33834e-005 8.13346e-007 1.14553e-005 -2.5117 45.6667 2.21681 -2.18936e-005 2.58789e-006 3 -8.03026 -4.95139 -0.697642 167.213 3.52349 3.38145 180 7.01544e-015 178.912 -178.324 4.15693 179.553 -2.67945e-006 -4.48744e-006 0.0183631 -18.6522 67.879 19.4348 8.1365 25.2327 -3.48774 -166.796 4.27922 -3.10899 4.54188e-006 -4.6773e-006 -1.15636 -0.849406 -6.68523 0.149784 3.40533e-006 -6.77322e-007 0.0122547 17.4234 66.2322 -18.1941 -8.13649 25.2327 3.48774 
50.7434 104.502 15.6973 0.175117 0.501705 -2.16787 0.14142 -1.05729 0.234119 0.284515 1.8888 0.452395 0.27934 3.53384 0.447928 -11.0264 3.17063 0.126164 13.079 11.2416 -1.90349 28.6803 -8.91245 -4.9023 61.0601 35.6435 47.7091 -2.27332e-007 -3.98544e-007 -2.99956e-008 3.17296 49.0425 -3.70355 2.10206e-005 -2.94675e-006 -3 8.02984 -4.95142 0.697646 -35.4118 -13.9725 9.97003 -41.4909 25.3852 -43.4643 -1.33834e-005 8.13346e-007 1.14553e-005 -2.54572 45.7308 2.23548 -2.18936e-005 2.58789e-006 3 -8.03026 -4.95139 -0.697642 167.362 3.63245 3.29762 180 7.01546e-015 178.92 -178.35 4.08162 179.559 -2.67945e-006 -4.48744e-006 0.0198974 -18.6737 67.9146 19.4638 8.1365 25.2327 -3.48774 -166.865 4.45154 -3.08786 4.54188e-006 -4.6773e-006 -1.14819 -0.876541 -6.72576 0.148203 3.40533e-006 -6.77322e-007 0.00886566 17.4408 66.265 -18.2186 -8.13649 25.2327 3.48774 
50.7462 104.681 15.6691 0.136776 0.619751 -2.18036 0.137538 -1.06315 0.230129 0.276905 1.87705 0.444853 0.271812 3.5221 0.440508 -10.5938 2.87532 0.0660236 12.809 11.482 -1.88319 29.3851 -8.91337 -4.92231 60.8672 35.3848 47.3422 -2.27332e-007 -3.98544e-007 -2.99956e-008 3.24331 48.8606 -3.73933 2.10206e-005 -2.94675e-006 -3 8.02984 -4.95142 0.697646 -35.3519 -14.112 10.1081 -42.3699 25.2019 -43.008 -1.33834e-005 8.13346e-007 1.14553e-005 -2.58014 45.7884 2.25585 -2.18936e-005 2.58789e-006 3 -8.03026 -4.95139 -0.697642 167.508 3.7379 3.21657 180 7.01548e-015 178.928 -178.378 4.00669 179.565 -2.67945e-006 -4.48744e-006 0.0209362 -18.6916 67.9445 19.4882 8.1365 25.2327 -3.48774 -166.941 4.61531 -3.06091 4.54188e-006 -4.6773e-006 -1.14067 -0.904317 -6.75195 0.146501 3.40533e-006 -6.77322e-007 0.00621267 17.4529 66.2891 -18.2365 -8.13649 25.2327 3.48774 
50.7356 104.886 15.6609 0.103869 0.736167 -2.19253 0.134065 -1.0697 0.22633 0.270181 1.86394 0.437644 0.265167 3.50898 0.433405 -10.1977 2.59744 0.0147179 12.5689 11.7071 -1.86237 30.0498 -8.91352 -4.93774 60.7208 35.117 46.9453 -2.27332e-007 -3.98544e-007 -2.99956e-008 3.31225 48.6468 -3.77168 2.10206e-005 -2.94675e-006 -3 8.02984 -4.95142 0.697646 -35.3263 -14.2339 10.2271 -43.2161 24.9945 -42.5617 -1.33834e-005 8.13346e-007 1.14553e-005 -2.6155 45.8379 2.27851 -2.18936e-005 2.58789e-006 3 -8.03026 -4.95139 -0.697642 167.649 3.83667 3.13862 180 7.01549e-015 178.934 -178.407 3.92817 179.571 -2.67945e-006 -4.48744e-006 0.0212921 -18.7051 67.9675 19.507 8.1365 25.2327 -3.48774 -167.028 4.76671 -3.0263 4.54188e-006 -4.6773e-006 -1.13389 -0.932157 -6.75833 0.144642 3.40533e-006 -6.77322e-007 0.00449662 17.4588 66.3033 -18.2471 -8.13649 25.2327 3.48774 
50.7327 105.038 15.5992 0.0760406 0.856935 -2.20532 0.130557 -1.07756 0.222687 0.263486 1.84818 0.430749 0.258548 3.49323 0.426617 -9.82416 2.32491 -0.030922 12.3496 11.9224 -1.84135 30.681 -8.91639 -4.95349 60.6062 34.8443 46.522 -2.27332e-007 -3.98544e-007 -2.99956e-008 3.37957 48.3964 -3.80057 2.10206e-005 -2.94675e-006 -3 8.02984 -4.95142 0.697646 -35.3236 -14.3465 10.3357 -44.0403 24.7723 -42.1253 -1.33834e-005 8.13346e-007 1.14553e-005 -2.65012 45.8819 2.30236 -2.18936e-005 2.58789e-006 3 -8.03026 -4.95139 -0.697642 167.787 3.93851 3.06415 180 7.01551e-015 178.94 -178.439 3.85579 179.577 -2.67945e-006 -4.48744e-006 0.0211684 -18.7137 67.9829 19.5196 8.1365 25.2327 -3.48774 -167.124 4.91697 -2.98733 4.54188e-006 -4.6773e-006 -1.12782 -0.962034 -6.75718 0.142711 3.40533e-006 -6.77322e-007 0.00341374 17.4584 66.3074 -18.2499 -8.13649 25.2327 3.48774 
